<svg xmlns="http://www.w3.org/2000/svg" width="408" height="209.349" viewBox="0 0 408 209.349">
  <g id="Group_70" data-name="Group 70" transform="translate(-747 -25)">
    <text id="devfest" transform="translate(747 166)" fill="#f4a702" font-size="107" font-family="SpaceMono-Regular, Space Mono" letter-spacing="-0.08em"><tspan x="0" y="0">devfest</tspan></text>
    <path id="Path_1233" data-name="Path 1233" d="M27.932,2.662V6.753H3.067V.458a10.582,10.582,0,0,1,.839-4.38,9.152,9.152,0,0,1,2.387-3.2,13.322,13.322,0,0,1,3.751-2.229,32.358,32.358,0,0,1,4.984-1.521q4.669-1.049,6.741-2.99a6.285,6.285,0,0,0,2.072-4.774v-.315a8.444,8.444,0,0,0-.472-2.78A7.113,7.113,0,0,0,21.9-24.2a7.109,7.109,0,0,0-2.544-1.757,9.449,9.449,0,0,0-3.7-.656,8.019,8.019,0,0,0-6.269,2.466,9.4,9.4,0,0,0-2.229,6.557v2.308H2.752V-17.9a14.012,14.012,0,0,1,.839-4.826A12.2,12.2,0,0,1,6.057-26.82,11.683,11.683,0,0,1,10.1-29.653,13.834,13.834,0,0,1,15.657-30.7a14.567,14.567,0,0,1,5.561.97,11.642,11.642,0,0,1,3.934,2.57,10.3,10.3,0,0,1,2.334,3.62,11.6,11.6,0,0,1,.761,4.118v.944a10.43,10.43,0,0,1-2.623,7.161Q23-8.355,17.231-7.1a19.111,19.111,0,0,0-7.4,2.911A6.238,6.238,0,0,0,7.473,1.088V2.662ZM30.45-15.7q0-7.134,3.41-11.069t9.5-3.934q6.085,0,9.5,3.934T56.26-15.7v8.184q0,7.344-3.41,11.174t-9.5,3.829q-6.085,0-9.5-3.829T30.45-7.515Zm12.9,19.2A7.328,7.328,0,0,0,49.729.537q2.125-2.964,2.125-8.367v-7.554a18.7,18.7,0,0,0-.525-4.59,10.423,10.423,0,0,0-1.6-3.567,7.618,7.618,0,0,0-2.675-2.334,7.846,7.846,0,0,0-3.7-.839,7.807,7.807,0,0,0-3.725.839,7.691,7.691,0,0,0-2.649,2.334,10.422,10.422,0,0,0-1.6,3.567,18.7,18.7,0,0,0-.525,4.59V-7.83q0,5.4,2.125,8.367A7.328,7.328,0,0,0,43.355,3.5Zm40.393-.839V6.753H58.883V.458a10.582,10.582,0,0,1,.839-4.38,9.152,9.152,0,0,1,2.387-3.2A13.322,13.322,0,0,1,65.86-9.351a32.358,32.358,0,0,1,4.984-1.521q4.669-1.049,6.741-2.99a6.285,6.285,0,0,0,2.072-4.774v-.315a8.444,8.444,0,0,0-.472-2.78A7.113,7.113,0,0,0,77.715-24.2a7.109,7.109,0,0,0-2.544-1.757,9.449,9.449,0,0,0-3.7-.656A8.019,8.019,0,0,0,65.2-24.145a9.4,9.4,0,0,0-2.229,6.557v2.308H58.568V-17.9a14.012,14.012,0,0,1,.839-4.826,12.2,12.2,0,0,1,2.466-4.092,11.683,11.683,0,0,1,4.039-2.833A13.835,13.835,0,0,1,71.473-30.7a14.567,14.567,0,0,1,5.561.97,11.642,11.642,0,0,1,3.934,2.57,10.3,10.3,0,0,1,2.334,3.62,11.6,11.6,0,0,1,.761,4.118v.944a10.43,10.43,0,0,1-2.623,7.161Q78.817-8.355,73.047-7.1a19.111,19.111,0,0,0-7.4,2.911,6.238,6.238,0,0,0-2.361,5.272V2.662ZM86.266-15.7q0-7.134,3.41-11.069t9.5-3.934q6.085,0,9.5,3.934t3.41,11.069v8.184q0,7.344-3.41,11.174t-9.5,3.829q-6.085,0-9.5-3.829T86.266-7.515Zm12.9,19.2A7.328,7.328,0,0,0,105.545.537q2.125-2.964,2.125-8.367v-7.554a18.7,18.7,0,0,0-.525-4.59,10.422,10.422,0,0,0-1.6-3.567,7.618,7.618,0,0,0-2.675-2.334,7.847,7.847,0,0,0-3.7-.839,7.807,7.807,0,0,0-3.725.839A7.691,7.691,0,0,0,92.8-23.541a10.422,10.422,0,0,0-1.6,3.567,18.7,18.7,0,0,0-.525,4.59V-7.83q0,5.4,2.125,8.367A7.328,7.328,0,0,0,99.171,3.5Z" transform="translate(894.002 226.861)" fill="#f4a702"/>
    <g id="gdg-logo" transform="translate(778.719 25)">
      <g id="Group_1" data-name="Group 1">
        <path id="Path_1" data-name="Path 1" d="M681.282,417.661q-4.56-2.589-9.121-5.179c-1.212-.689-2.45-1.34-3.627-2.084a5.9,5.9,0,0,1-2.582-6.465,6.176,6.176,0,0,1,5.231-4.55,6.416,6.416,0,0,1,4.084.854q10.739,6.038,21.454,12.118a5.993,5.993,0,0,1,1.53,9.5A7.779,7.779,0,0,1,695.7,423.5a5.083,5.083,0,0,1-4.6-.228c-2.235-1.066-4.334-2.4-6.5-3.589-.93-.512-1.845-1.05-2.774-1.563C681.608,418.006,681.363,417.929,681.282,417.661Z" transform="translate(-622.324 -396.727)" fill="#fff"/>
        <path id="Path_2" data-name="Path 2" d="M357.922,496.653q3.374,1.925,6.748,3.85c1.811,1.028,3.635,2.033,5.44,3.071a5.99,5.99,0,0,1,2.212,8.811,6.127,6.127,0,0,1-7.749,1.974c-3.272-1.723-6.472-3.583-9.7-5.394-4.076-2.288-8.141-4.6-12.219-6.879a6.047,6.047,0,0,1,.33-11.03c.174-.084.343-.179.515-.269a6.678,6.678,0,0,1,5.829.862c2.7,1.564,5.442,3.068,8.155,4.617C357.659,496.365,357.845,496.447,357.922,496.653Z" transform="translate(-339.249 -473.275)" fill="#fff"/>
        <path id="Path_3" data-name="Path 3" d="M385.629,417.72q-3.567-1.987-7.134-3.973c-.871-.484-1.737-.976-2.618-1.442a6,6,0,0,0-3.878-.534c-.261.042-.527.056-.79.083q4.17-2.373,8.341-4.745,6.01-3.4,12.029-6.791a6.38,6.38,0,0,1,7.786.879,5.88,5.88,0,0,1-.945,9.2c-2.716,1.7-5.564,3.2-8.352,4.788Q387.846,416.449,385.629,417.72Z" transform="translate(-366.956 -396.782)" fill="#fff"/>
        <path id="Path_4" data-name="Path 4" d="M681.14,537.082c2.676,1.5,5.381,2.941,8.019,4.5,2,1.186,4.039,1.971,6.4,1.338-1.711,1.1-3.522,2.034-5.291,3.037q-7.542,4.274-15.1,8.513a6.294,6.294,0,0,1-7.778-.862,5.966,5.966,0,0,1,1.4-9.506c3.455-1.987,6.94-3.921,10.409-5.883C679.852,537.852,680.493,537.462,681.14,537.082Z" transform="translate(-622.182 -513.708)" fill="#fff"/>
        <text id="GDG_Philippines" data-name="GDG Philippines" transform="translate(93.399 33)" fill="#fff" font-size="34" font-family="ProductSans-Regular, Product Sans"><tspan x="0" y="0">GDG Philippines</tspan></text>
      </g>
    </g>
  </g>
</svg>
