<svg xmlns="http://www.w3.org/2000/svg" width="450.335" height="450.335" viewBox="0 0 450.335 450.335">
  <path id="Path_1097" data-name="Path 1097" d="M390.293,1489.536c-124.155,0-225.162,101.007-225.162,225.167s101.007,225.167,225.162,225.167S615.466,1838.864,615.466,1714.7s-101.007-225.167-225.172-225.167m-186.77,208c.178-1.918.4-3.827.626-5.731v5.731Zm80.82,171.864v-31.532h39.951v-40.093h40.093v-40.1H324.294v-40.093H284.344v-40.1H206.427a186.542,186.542,0,0,1,26.134-64.133h51.784v40.093h40.093v-40.093h80.044v-40.1h40.1v-38.114a187.2,187.2,0,0,1,60.891,31.644H488.19v40.093h40.1v-19.1a187.983,187.983,0,0,1,36.9,59.2H529.257v39.838l-.649.644v-.388H488.515v40.1h.128l-.128.127v-.127h-40.1v40.093h40.1v80.191H522.71A187.2,187.2,0,0,1,284.344,1869.4" transform="translate(-165.131 -1489.536)" fill="#4281f0" opacity="0.84"/>
</svg>
