<svg xmlns="http://www.w3.org/2000/svg" width="269.49" height="169.279" viewBox="0 0 269.49 169.279">
  <g id="Group_69" data-name="Group 69" transform="translate(-429.434 -1934.868)">
    <path id="Path_1110" data-name="Path 1110" d="M309.7,2203.92v-5.988h5.988Z" transform="translate(148.565 -131.611)" fill="#376dec" opacity="0.84"/>
    <path id="Path_1111" data-name="Path 1111" d="M322.5,2204.735v5.99h-5.988Z" transform="translate(148.565 -131.611)" fill="#376dec" opacity="0.84"/>
    <rect id="Rectangle_314" data-name="Rectangle 314" width="2.011" height="13.515" transform="translate(459.262 2068.734) rotate(-45)" fill="#376dec" opacity="0.84"/>
    <path id="Path_1116" data-name="Path 1116" d="M296.663,2211.724H281.881v-14.782h14.782Zm-12.774-2.009h10.765V2198.95H283.889Z" transform="translate(148.565 -131.611)" fill="#376dec" opacity="0.84"/>
    <rect id="Rectangle_315" data-name="Rectangle 315" width="4.249" height="4.249" transform="translate(442.099 2064.209)" fill="#376dec" opacity="0.84"/>
    <rect id="Rectangle_316" data-name="Rectangle 316" width="4.249" height="4.249" transform="translate(429.434 2064.209)" fill="#376dec" opacity="0.84"/>
    <rect id="Rectangle_317" data-name="Rectangle 317" width="4.249" height="4.251" transform="translate(429.434 2076.974)" fill="#376dec" opacity="0.84"/>
    <rect id="Rectangle_318" data-name="Rectangle 318" width="4.249" height="4.251" transform="translate(442.099 2076.974)" fill="#376dec" opacity="0.84"/>
    <path id="Path_1131" data-name="Path 1131" d="M309.7,2178.051v-5.988h5.988Z" transform="translate(148.565 -131.611)" fill="#376dec" opacity="0.84"/>
    <path id="Path_1132" data-name="Path 1132" d="M322.5,2178.868v5.988h-5.988Z" transform="translate(148.565 -131.611)" fill="#376dec" opacity="0.84"/>
    <rect id="Rectangle_323" data-name="Rectangle 323" width="2.011" height="13.515" transform="translate(459.262 2042.866) rotate(-45.005)" fill="#376dec" opacity="0.84"/>
    <path id="Path_1137" data-name="Path 1137" d="M296.663,2185.855H281.881v-14.782h14.782Zm-12.774-2.009h10.765v-10.764H283.889Z" transform="translate(148.565 -131.611)" fill="#376dec" opacity="0.84"/>
    <rect id="Rectangle_324" data-name="Rectangle 324" width="4.249" height="4.249" transform="translate(442.099 2038.34)" fill="#376dec" opacity="0.84"/>
    <rect id="Rectangle_325" data-name="Rectangle 325" width="4.249" height="4.249" transform="translate(429.434 2038.34)" fill="#376dec" opacity="0.84"/>
    <rect id="Rectangle_326" data-name="Rectangle 326" width="4.249" height="4.249" transform="translate(429.434 2051.107)" fill="#376dec" opacity="0.84"/>
    <rect id="Rectangle_327" data-name="Rectangle 327" width="4.249" height="4.249" transform="translate(442.099 2051.107)" fill="#376dec" opacity="0.84"/>
    <path id="Path_1138" data-name="Path 1138" d="M309.7,2152.184V2146.2h5.988Z" transform="translate(148.565 -131.611)" fill="#376dec" opacity="0.84"/>
    <path id="Path_1139" data-name="Path 1139" d="M322.5,2153v5.988h-5.988Z" transform="translate(148.565 -131.611)" fill="#376dec" opacity="0.84"/>
    <rect id="Rectangle_328" data-name="Rectangle 328" width="2.011" height="13.515" transform="translate(459.262 2016.998) rotate(-45)" fill="#376dec" opacity="0.84"/>
    <path id="Path_1144" data-name="Path 1144" d="M296.663,2159.988H281.881V2145.2h14.782Zm-12.774-2.011h10.765v-10.763H283.889Z" transform="translate(148.565 -131.611)" fill="#376dec" opacity="0.84"/>
    <rect id="Rectangle_329" data-name="Rectangle 329" width="4.249" height="4.249" transform="translate(442.099 2012.475)" fill="#376dec" opacity="0.84"/>
    <rect id="Rectangle_330" data-name="Rectangle 330" width="4.249" height="4.249" transform="translate(429.434 2012.475)" fill="#376dec" opacity="0.84"/>
    <rect id="Rectangle_331" data-name="Rectangle 331" width="4.249" height="4.249" transform="translate(429.434 2025.238)" fill="#376dec" opacity="0.84"/>
    <rect id="Rectangle_332" data-name="Rectangle 332" width="4.249" height="4.249" transform="translate(442.099 2025.238)" fill="#376dec" opacity="0.84"/>
    <path id="Path_1163" data-name="Path 1163" d="M309.7,2126.315v-5.988h5.988Z" transform="translate(148.565 -131.611)" fill="#376dec" opacity="0.84"/>
    <path id="Path_1164" data-name="Path 1164" d="M322.5,2127.131v5.988h-5.988Z" transform="translate(148.565 -131.611)" fill="#376dec" opacity="0.84"/>
    <rect id="Rectangle_339" data-name="Rectangle 339" width="2.011" height="13.515" transform="translate(459.262 1991.129) rotate(-45)" fill="#376dec" opacity="0.84"/>
    <path id="Path_1169" data-name="Path 1169" d="M296.663,2134.119H281.881v-14.782h14.782Zm-12.774-2.011h10.765v-10.763H283.889Z" transform="translate(148.565 -131.611)" fill="#376dec" opacity="0.84"/>
    <rect id="Rectangle_340" data-name="Rectangle 340" width="4.249" height="4.249" transform="translate(442.099 1986.606)" fill="#376dec" opacity="0.84"/>
    <rect id="Rectangle_341" data-name="Rectangle 341" width="4.249" height="4.249" transform="translate(429.434 1986.606)" fill="#376dec" opacity="0.84"/>
    <rect id="Rectangle_342" data-name="Rectangle 342" width="4.249" height="4.249" transform="translate(429.434 1999.369)" fill="#376dec" opacity="0.84"/>
    <rect id="Rectangle_343" data-name="Rectangle 343" width="4.249" height="4.249" transform="translate(442.099 1999.369)" fill="#376dec" opacity="0.84"/>
    <path id="Path_1184" data-name="Path 1184" d="M309.7,2100.447v-5.988h5.988Z" transform="translate(148.565 -131.611)" fill="#376dec" opacity="0.84"/>
    <path id="Path_1185" data-name="Path 1185" d="M322.5,2101.262v5.988h-5.988Z" transform="translate(148.565 -131.611)" fill="#376dec" opacity="0.84"/>
    <rect id="Rectangle_348" data-name="Rectangle 348" width="2.011" height="13.515" transform="translate(459.262 1965.26) rotate(-45)" fill="#376dec" opacity="0.84"/>
    <path id="Path_1190" data-name="Path 1190" d="M296.663,2108.25H281.881v-14.782h14.782Zm-12.774-2.011h10.765v-10.763H283.889Z" transform="translate(148.565 -131.611)" fill="#376dec" opacity="0.84"/>
    <rect id="Rectangle_349" data-name="Rectangle 349" width="4.249" height="4.249" transform="translate(442.099 1960.737)" fill="#376dec" opacity="0.84"/>
    <rect id="Rectangle_350" data-name="Rectangle 350" width="4.249" height="4.249" transform="translate(429.434 1960.737)" fill="#376dec" opacity="0.84"/>
    <rect id="Rectangle_351" data-name="Rectangle 351" width="4.249" height="4.249" transform="translate(429.434 1973.5)" fill="#376dec" opacity="0.84"/>
    <rect id="Rectangle_352" data-name="Rectangle 352" width="4.249" height="4.249" transform="translate(442.099 1973.5)" fill="#376dec" opacity="0.84"/>
    <path id="Path_1201" data-name="Path 1201" d="M309.7,2074.578v-5.988h5.988Z" transform="translate(148.565 -131.611)" fill="#376dec" opacity="0.84"/>
    <path id="Path_1202" data-name="Path 1202" d="M322.5,2075.4v5.988h-5.988Z" transform="translate(148.565 -131.611)" fill="#376dec" opacity="0.84"/>
    <rect id="Rectangle_353" data-name="Rectangle 353" width="2.011" height="13.515" transform="translate(459.262 1939.393) rotate(-45.005)" fill="#376dec" opacity="0.84"/>
    <path id="Path_1207" data-name="Path 1207" d="M296.663,2082.382H281.881V2067.6h14.782Zm-12.774-2.01h10.765v-10.763H283.889Z" transform="translate(148.565 -131.611)" fill="#376dec" opacity="0.84"/>
    <rect id="Rectangle_354" data-name="Rectangle 354" width="4.249" height="4.249" transform="translate(442.099 1934.868)" fill="#376dec" opacity="0.84"/>
    <rect id="Rectangle_355" data-name="Rectangle 355" width="4.249" height="4.249" transform="translate(429.434 1934.868)" fill="#376dec" opacity="0.84"/>
    <rect id="Rectangle_356" data-name="Rectangle 356" width="4.249" height="4.249" transform="translate(429.434 1947.633)" fill="#376dec" opacity="0.84"/>
    <rect id="Rectangle_357" data-name="Rectangle 357" width="4.249" height="4.249" transform="translate(442.099 1947.633)" fill="#376dec" opacity="0.84"/>
    <rect id="Rectangle_362" data-name="Rectangle 362" width="10.976" height="2.009" transform="translate(668.115 2101.032)" fill="#376dec" opacity="0.84"/>
    <path id="Path_1226" data-name="Path 1226" d="M309.7,2226.842v-5.988h5.988Z" transform="translate(148.565 -131.611)" fill="#376dec" opacity="0.84"/>
    <path id="Path_1227" data-name="Path 1227" d="M322.5,2227.657v5.99h-5.988Z" transform="translate(148.565 -131.611)" fill="#376dec" opacity="0.84"/>
    <rect id="Rectangle_364" data-name="Rectangle 364" width="2.011" height="13.515" transform="translate(459.262 2091.656) rotate(-45)" fill="#376dec" opacity="0.84"/>
    <path id="Path_1232" data-name="Path 1232" d="M296.663,2234.646H281.881v-14.782h14.782Zm-12.774-2.009h10.765v-10.764H283.889Z" transform="translate(148.565 -131.611)" fill="#376dec" opacity="0.84"/>
    <rect id="Rectangle_365" data-name="Rectangle 365" width="4.249" height="4.249" transform="translate(442.099 2087.133)" fill="#376dec" opacity="0.84"/>
    <rect id="Rectangle_366" data-name="Rectangle 366" width="4.249" height="4.249" transform="translate(429.434 2087.133)" fill="#376dec" opacity="0.84"/>
    <rect id="Rectangle_367" data-name="Rectangle 367" width="4.249" height="4.251" transform="translate(429.434 2099.896)" fill="#376dec" opacity="0.84"/>
    <rect id="Rectangle_368" data-name="Rectangle 368" width="4.249" height="4.251" transform="translate(442.099 2099.896)" fill="#376dec" opacity="0.84"/>
    <path id="Path_1114" data-name="Path 1114" d="M341.1,2199.845a2.41,2.41,0,1,1-2.409-2.411,2.41,2.41,0,0,1,2.409,2.411" transform="translate(148.565 -131.611)" fill="#376dec" opacity="0.84"/>
    <path id="Path_1115" data-name="Path 1115" d="M337.406,2211.22h-2.935v-2.009h2.935a.275.275,0,0,0,.274-.275v-4.684h2.011v4.684a2.288,2.288,0,0,1-2.285,2.284" transform="translate(148.565 -131.611)" fill="#376dec" opacity="0.84"/>
    <path id="Path_1135" data-name="Path 1135" d="M341.1,2173.977a2.41,2.41,0,1,1-2.409-2.411,2.409,2.409,0,0,1,2.409,2.411" transform="translate(148.565 -131.611)" fill="#376dec" opacity="0.84"/>
    <path id="Path_1136" data-name="Path 1136" d="M337.406,2185.353h-2.935v-2.011h2.935a.274.274,0,0,0,.274-.273v-4.686h2.011v4.686a2.288,2.288,0,0,1-2.285,2.284" transform="translate(148.565 -131.611)" fill="#376dec" opacity="0.84"/>
    <path id="Path_1142" data-name="Path 1142" d="M341.1,2148.108a2.41,2.41,0,1,1-2.409-2.41,2.41,2.41,0,0,1,2.409,2.41" transform="translate(148.565 -131.611)" fill="#376dec" opacity="0.84"/>
    <path id="Path_1143" data-name="Path 1143" d="M337.406,2159.485h-2.935v-2.011h2.935a.275.275,0,0,0,.274-.274v-4.686h2.011v4.686a2.289,2.289,0,0,1-2.285,2.285" transform="translate(148.565 -131.611)" fill="#376dec" opacity="0.84"/>
    <path id="Path_1167" data-name="Path 1167" d="M341.1,2122.241a2.41,2.41,0,1,1-2.409-2.411,2.408,2.408,0,0,1,2.409,2.411" transform="translate(148.565 -131.611)" fill="#376dec" opacity="0.84"/>
    <path id="Path_1168" data-name="Path 1168" d="M337.406,2133.616h-2.935v-2.01h2.935a.275.275,0,0,0,.274-.275v-4.686h2.011v4.686a2.289,2.289,0,0,1-2.285,2.285" transform="translate(148.565 -131.611)" fill="#376dec" opacity="0.84"/>
    <path id="Path_1188" data-name="Path 1188" d="M341.1,2096.372a2.41,2.41,0,1,1-2.409-2.411,2.408,2.408,0,0,1,2.409,2.411" transform="translate(148.565 -131.611)" fill="#376dec" opacity="0.84"/>
    <path id="Path_1189" data-name="Path 1189" d="M337.406,2107.747h-2.935v-2.009h2.935a.275.275,0,0,0,.274-.275v-4.686h2.011v4.686a2.288,2.288,0,0,1-2.285,2.284" transform="translate(148.565 -131.611)" fill="#376dec" opacity="0.84"/>
    <path id="Path_1205" data-name="Path 1205" d="M341.1,2070.5a2.41,2.41,0,1,1-2.409-2.411,2.41,2.41,0,0,1,2.409,2.411" transform="translate(148.565 -131.611)" fill="#376dec" opacity="0.84"/>
    <path id="Path_1206" data-name="Path 1206" d="M337.406,2081.88h-2.935v-2.011h2.935a.274.274,0,0,0,.274-.273v-4.686h2.011v4.686a2.288,2.288,0,0,1-2.285,2.284" transform="translate(148.565 -131.611)" fill="#376dec" opacity="0.84"/>
    <path id="Path_1230" data-name="Path 1230" d="M341.1,2222.767a2.41,2.41,0,1,1-2.409-2.411,2.41,2.41,0,0,1,2.409,2.411" transform="translate(148.565 -131.611)" fill="#376dec" opacity="0.84"/>
    <path id="Path_1231" data-name="Path 1231" d="M337.406,2234.143h-2.935v-2.01h2.935a.274.274,0,0,0,.274-.273v-4.686h2.011v4.686a2.287,2.287,0,0,1-2.285,2.283" transform="translate(148.565 -131.611)" fill="#376dec" opacity="0.84"/>
    <path id="Path_1112" data-name="Path 1112" d="M359.738,2208.308a2.41,2.41,0,1,1-2.409-2.411,2.41,2.41,0,0,1,2.409,2.411" transform="translate(148.565 -131.611)" fill="#376dec" opacity="0.84"/>
    <path id="Path_1113" data-name="Path 1113" d="M359.738,2200.348a2.41,2.41,0,1,1-2.409-2.411,2.409,2.409,0,0,1,2.409,2.411" transform="translate(148.565 -131.611)" fill="#376dec" opacity="0.84"/>
    <path id="Path_1133" data-name="Path 1133" d="M359.738,2182.44a2.41,2.41,0,1,1-2.409-2.41,2.409,2.409,0,0,1,2.409,2.41" transform="translate(148.565 -131.611)" fill="#376dec" opacity="0.84"/>
    <path id="Path_1134" data-name="Path 1134" d="M359.738,2174.48a2.41,2.41,0,1,1-2.409-2.411,2.408,2.408,0,0,1,2.409,2.411" transform="translate(148.565 -131.611)" fill="#376dec" opacity="0.84"/>
    <path id="Path_1140" data-name="Path 1140" d="M359.738,2156.572a2.41,2.41,0,1,1-2.409-2.41,2.408,2.408,0,0,1,2.409,2.41" transform="translate(148.565 -131.611)" fill="#376dec" opacity="0.84"/>
    <path id="Path_1141" data-name="Path 1141" d="M359.738,2148.611a2.41,2.41,0,1,1-2.409-2.411,2.41,2.41,0,0,1,2.409,2.411" transform="translate(148.565 -131.611)" fill="#376dec" opacity="0.84"/>
    <path id="Path_1165" data-name="Path 1165" d="M359.738,2130.7a2.41,2.41,0,1,1-2.409-2.411,2.408,2.408,0,0,1,2.409,2.411" transform="translate(148.565 -131.611)" fill="#376dec" opacity="0.84"/>
    <path id="Path_1166" data-name="Path 1166" d="M359.738,2122.742a2.41,2.41,0,1,1-2.409-2.409,2.41,2.41,0,0,1,2.409,2.409" transform="translate(148.565 -131.611)" fill="#376dec" opacity="0.84"/>
    <path id="Path_1186" data-name="Path 1186" d="M359.738,2104.835a2.41,2.41,0,1,1-2.409-2.411,2.41,2.41,0,0,1,2.409,2.411" transform="translate(148.565 -131.611)" fill="#376dec" opacity="0.84"/>
    <path id="Path_1187" data-name="Path 1187" d="M359.738,2096.873a2.41,2.41,0,1,1-2.409-2.409,2.41,2.41,0,0,1,2.409,2.409" transform="translate(148.565 -131.611)" fill="#376dec" opacity="0.84"/>
    <path id="Path_1203" data-name="Path 1203" d="M359.738,2078.966a2.41,2.41,0,1,1-2.409-2.409,2.41,2.41,0,0,1,2.409,2.409" transform="translate(148.565 -131.611)" fill="#376dec" opacity="0.84"/>
    <path id="Path_1204" data-name="Path 1204" d="M359.738,2071.006a2.41,2.41,0,1,1-2.409-2.411,2.409,2.409,0,0,1,2.409,2.411" transform="translate(148.565 -131.611)" fill="#376dec" opacity="0.84"/>
    <path id="Path_1228" data-name="Path 1228" d="M359.738,2231.23a2.41,2.41,0,1,1-2.409-2.409,2.41,2.41,0,0,1,2.409,2.409" transform="translate(148.565 -131.611)" fill="#376dec" opacity="0.84"/>
    <path id="Path_1229" data-name="Path 1229" d="M359.738,2223.271a2.41,2.41,0,1,1-2.409-2.411,2.408,2.408,0,0,1,2.409,2.411" transform="translate(148.565 -131.611)" fill="#376dec" opacity="0.84"/>
    <path id="Path_1098" data-name="Path 1098" d="M374.371,2203.213H372.36V2199.8a1.6,1.6,0,0,1,1.6-1.6h2.608v2.009h-2.193Z" transform="translate(148.565 -131.611)" fill="#376dec" opacity="0.84"/>
    <path id="Path_1099" data-name="Path 1099" d="M372.774,2204.7h-2.608v-2.011h2.194v-1.854h2.01v2.269a1.6,1.6,0,0,1-1.6,1.6" transform="translate(148.565 -131.611)" fill="#376dec" opacity="0.84"/>
    <path id="Path_1100" data-name="Path 1100" d="M376.564,2210.449h-2.608a1.6,1.6,0,0,1-1.6-1.6v-3.411h2.011v3h2.193Z" transform="translate(148.565 -131.611)" fill="#376dec" opacity="0.84"/>
    <path id="Path_1101" data-name="Path 1101" d="M374.371,2207.827H372.36v-1.856h-2.194v-2.009h2.608a1.6,1.6,0,0,1,1.6,1.6Z" transform="translate(148.565 -131.611)" fill="#376dec" opacity="0.84"/>
    <path id="Path_1117" data-name="Path 1117" d="M374.371,2177.345H372.36v-3.409a1.6,1.6,0,0,1,1.6-1.6h2.608v2.011h-2.193Z" transform="translate(148.565 -131.611)" fill="#376dec" opacity="0.84"/>
    <path id="Path_1118" data-name="Path 1118" d="M372.774,2178.828h-2.608v-2.011h2.194v-1.855h2.01v2.269a1.6,1.6,0,0,1-1.6,1.6" transform="translate(148.565 -131.611)" fill="#376dec" opacity="0.84"/>
    <path id="Path_1119" data-name="Path 1119" d="M376.564,2184.58h-2.608a1.6,1.6,0,0,1-1.6-1.6v-3.41h2.011v3h2.193Z" transform="translate(148.565 -131.611)" fill="#376dec" opacity="0.84"/>
    <path id="Path_1120" data-name="Path 1120" d="M374.371,2181.958H372.36V2180.1h-2.194v-2.011h2.608a1.6,1.6,0,0,1,1.6,1.6Z" transform="translate(148.565 -131.611)" fill="#376dec" opacity="0.84"/>
    <path id="Path_1145" data-name="Path 1145" d="M374.371,2125.609H372.36V2122.2a1.6,1.6,0,0,1,1.6-1.595h2.608v2.01h-2.193Z" transform="translate(148.565 -131.611)" fill="#376dec" opacity="0.84"/>
    <path id="Path_1146" data-name="Path 1146" d="M372.774,2127.09h-2.608v-2.009h2.194v-1.856h2.01v2.268a1.6,1.6,0,0,1-1.6,1.6" transform="translate(148.565 -131.611)" fill="#376dec" opacity="0.84"/>
    <path id="Path_1147" data-name="Path 1147" d="M376.564,2132.842h-2.608a1.6,1.6,0,0,1-1.6-1.595v-3.41h2.011v3h2.193Z" transform="translate(148.565 -131.611)" fill="#376dec" opacity="0.84"/>
    <path id="Path_1148" data-name="Path 1148" d="M374.371,2130.222H372.36v-1.855h-2.194v-2.01h2.608a1.6,1.6,0,0,1,1.6,1.6Z" transform="translate(148.565 -131.611)" fill="#376dec" opacity="0.84"/>
    <path id="Path_1170" data-name="Path 1170" d="M374.371,2099.74H372.36v-3.409a1.6,1.6,0,0,1,1.6-1.6h2.608v2.01h-2.193Z" transform="translate(148.565 -131.611)" fill="#376dec" opacity="0.84"/>
    <path id="Path_1171" data-name="Path 1171" d="M372.774,2101.223h-2.608v-2.011h2.194v-1.854h2.01v2.268a1.6,1.6,0,0,1-1.6,1.6" transform="translate(148.565 -131.611)" fill="#376dec" opacity="0.84"/>
    <path id="Path_1172" data-name="Path 1172" d="M376.564,2106.975h-2.608a1.6,1.6,0,0,1-1.6-1.6v-3.411h2.011v3h2.193Z" transform="translate(148.565 -131.611)" fill="#376dec" opacity="0.84"/>
    <path id="Path_1173" data-name="Path 1173" d="M374.371,2104.354H372.36V2102.5h-2.194v-2.009h2.608a1.6,1.6,0,0,1,1.6,1.6Z" transform="translate(148.565 -131.611)" fill="#376dec" opacity="0.84"/>
    <path id="Path_1191" data-name="Path 1191" d="M374.371,2073.872H372.36v-3.41a1.6,1.6,0,0,1,1.6-1.6h2.608v2.009h-2.193Z" transform="translate(148.565 -131.611)" fill="#376dec" opacity="0.84"/>
    <path id="Path_1192" data-name="Path 1192" d="M372.774,2075.354h-2.608v-2.011h2.194v-1.854h2.01v2.269a1.6,1.6,0,0,1-1.6,1.6" transform="translate(148.565 -131.611)" fill="#376dec" opacity="0.84"/>
    <path id="Path_1193" data-name="Path 1193" d="M376.564,2081.107h-2.608a1.6,1.6,0,0,1-1.6-1.6V2076.1h2.011v3h2.193Z" transform="translate(148.565 -131.611)" fill="#376dec" opacity="0.84"/>
    <path id="Path_1194" data-name="Path 1194" d="M374.371,2078.485H372.36v-1.854h-2.194v-2.011h2.608a1.6,1.6,0,0,1,1.6,1.6Z" transform="translate(148.565 -131.611)" fill="#376dec" opacity="0.84"/>
    <path id="Path_1208" data-name="Path 1208" d="M374.371,2226.136H372.36v-3.409a1.6,1.6,0,0,1,1.6-1.6h2.608v2.009h-2.193Z" transform="translate(148.565 -131.611)" fill="#376dec" opacity="0.84"/>
    <path id="Path_1209" data-name="Path 1209" d="M372.774,2227.618h-2.608v-2.011h2.194v-1.854h2.01v2.269a1.6,1.6,0,0,1-1.6,1.6" transform="translate(148.565 -131.611)" fill="#376dec" opacity="0.84"/>
    <path id="Path_1210" data-name="Path 1210" d="M376.564,2233.371h-2.608a1.6,1.6,0,0,1-1.6-1.6v-3.411h2.011v3h2.193Z" transform="translate(148.565 -131.611)" fill="#376dec" opacity="0.84"/>
    <path id="Path_1211" data-name="Path 1211" d="M374.371,2230.749H372.36v-1.855h-2.194v-2.01h2.608a1.6,1.6,0,0,1,1.6,1.6Z" transform="translate(148.565 -131.611)" fill="#376dec" opacity="0.84"/>
    <path id="Path_1102" data-name="Path 1102" d="M384.462,2210.449h-2.608v-2.011h2.193v-3h2.01v3.411a1.6,1.6,0,0,1-1.6,1.6" transform="translate(148.565 -131.611)" fill="#376dec" opacity="0.84"/>
    <path id="Path_1103" data-name="Path 1103" d="M386.057,2207.826h-2.01v-2.269a1.6,1.6,0,0,1,1.6-1.6h2.606v2.01h-2.193Z" transform="translate(148.565 -131.611)" fill="#376dec" opacity="0.84"/>
    <path id="Path_1104" data-name="Path 1104" d="M386.057,2203.213h-2.01v-3h-2.193v-2.009h2.608a1.6,1.6,0,0,1,1.6,1.6Z" transform="translate(148.565 -131.611)" fill="#376dec" opacity="0.84"/>
    <path id="Path_1105" data-name="Path 1105" d="M388.25,2204.7h-2.606a1.6,1.6,0,0,1-1.6-1.6v-2.269h2.01v1.855h2.193Z" transform="translate(148.565 -131.611)" fill="#376dec" opacity="0.84"/>
    <path id="Path_1121" data-name="Path 1121" d="M384.462,2184.58h-2.608v-2.009h2.193v-3h2.01v3.41a1.6,1.6,0,0,1-1.6,1.6" transform="translate(148.565 -131.611)" fill="#376dec" opacity="0.84"/>
    <path id="Path_1122" data-name="Path 1122" d="M386.057,2181.957h-2.01v-2.269a1.6,1.6,0,0,1,1.6-1.6h2.606v2.011h-2.193Z" transform="translate(148.565 -131.611)" fill="#376dec" opacity="0.84"/>
    <path id="Path_1123" data-name="Path 1123" d="M386.057,2177.345h-2.01v-2.995h-2.193v-2.011h2.608a1.6,1.6,0,0,1,1.6,1.6Z" transform="translate(148.565 -131.611)" fill="#376dec" opacity="0.84"/>
    <path id="Path_1124" data-name="Path 1124" d="M388.25,2178.826h-2.606a1.6,1.6,0,0,1-1.6-1.6v-2.268h2.01v1.854h2.193Z" transform="translate(148.565 -131.611)" fill="#376dec" opacity="0.84"/>
    <path id="Path_1149" data-name="Path 1149" d="M384.462,2132.842h-2.608v-2.009h2.193v-3h2.01v3.41a1.6,1.6,0,0,1-1.6,1.595" transform="translate(148.565 -131.611)" fill="#376dec" opacity="0.84"/>
    <path id="Path_1150" data-name="Path 1150" d="M386.057,2130.221h-2.01v-2.269a1.6,1.6,0,0,1,1.6-1.6h2.606v2.009h-2.193Z" transform="translate(148.565 -131.611)" fill="#376dec" opacity="0.84"/>
    <path id="Path_1151" data-name="Path 1151" d="M386.057,2125.609h-2.01v-3h-2.193v-2.01h2.608a1.6,1.6,0,0,1,1.6,1.595Z" transform="translate(148.565 -131.611)" fill="#376dec" opacity="0.84"/>
    <path id="Path_1152" data-name="Path 1152" d="M388.25,2127.089h-2.606a1.6,1.6,0,0,1-1.6-1.6v-2.271h2.01v1.856h2.193Z" transform="translate(148.565 -131.611)" fill="#376dec" opacity="0.84"/>
    <path id="Path_1174" data-name="Path 1174" d="M384.462,2106.975h-2.608v-2.011h2.193v-3h2.01v3.411a1.6,1.6,0,0,1-1.6,1.6" transform="translate(148.565 -131.611)" fill="#376dec" opacity="0.84"/>
    <path id="Path_1175" data-name="Path 1175" d="M386.057,2104.352h-2.01v-2.268a1.6,1.6,0,0,1,1.6-1.6h2.606v2.01h-2.193Z" transform="translate(148.565 -131.611)" fill="#376dec" opacity="0.84"/>
    <path id="Path_1176" data-name="Path 1176" d="M386.057,2099.74h-2.01v-3h-2.193v-2.01h2.608a1.6,1.6,0,0,1,1.6,1.6Z" transform="translate(148.565 -131.611)" fill="#376dec" opacity="0.84"/>
    <path id="Path_1177" data-name="Path 1177" d="M388.25,2101.221h-2.606a1.6,1.6,0,0,1-1.6-1.6v-2.269h2.01v1.854h2.193Z" transform="translate(148.565 -131.611)" fill="#376dec" opacity="0.84"/>
    <path id="Path_1195" data-name="Path 1195" d="M384.462,2081.107h-2.608V2079.1h2.193v-3h2.01v3.411a1.6,1.6,0,0,1-1.6,1.6" transform="translate(148.565 -131.611)" fill="#376dec" opacity="0.84"/>
    <path id="Path_1196" data-name="Path 1196" d="M386.057,2078.484h-2.01v-2.269a1.6,1.6,0,0,1,1.6-1.6h2.606v2.011h-2.193Z" transform="translate(148.565 -131.611)" fill="#376dec" opacity="0.84"/>
    <path id="Path_1197" data-name="Path 1197" d="M386.057,2073.872h-2.01v-3h-2.193v-2.009h2.608a1.6,1.6,0,0,1,1.6,1.6Z" transform="translate(148.565 -131.611)" fill="#376dec" opacity="0.84"/>
    <path id="Path_1198" data-name="Path 1198" d="M388.25,2075.353h-2.606a1.6,1.6,0,0,1-1.6-1.6v-2.268h2.01v1.854h2.193Z" transform="translate(148.565 -131.611)" fill="#376dec" opacity="0.84"/>
    <path id="Path_1212" data-name="Path 1212" d="M384.462,2233.371h-2.608v-2.011h2.193v-3h2.01v3.411a1.6,1.6,0,0,1-1.6,1.6" transform="translate(148.565 -131.611)" fill="#376dec" opacity="0.84"/>
    <path id="Path_1213" data-name="Path 1213" d="M386.057,2230.748h-2.01v-2.269a1.6,1.6,0,0,1,1.6-1.6h2.606v2.011h-2.193Z" transform="translate(148.565 -131.611)" fill="#376dec" opacity="0.84"/>
    <path id="Path_1214" data-name="Path 1214" d="M386.057,2226.136h-2.01v-3h-2.193v-2.009h2.608a1.6,1.6,0,0,1,1.6,1.6Z" transform="translate(148.565 -131.611)" fill="#376dec" opacity="0.84"/>
    <path id="Path_1215" data-name="Path 1215" d="M388.25,2227.617h-2.606a1.6,1.6,0,0,1-1.6-1.6v-2.268h2.01v1.854h2.193Z" transform="translate(148.565 -131.611)" fill="#376dec" opacity="0.84"/>
    <path id="Path_1106" data-name="Path 1106" d="M404.058,2210.438h-2.607a1.6,1.6,0,0,1-1.6-1.6v-9.026a1.6,1.6,0,0,1,1.6-1.6h2.607v2.01h-2.194v8.2h2.194Z" transform="translate(148.565 -131.611)" fill="#376dec" opacity="0.84"/>
    <path id="Path_1125" data-name="Path 1125" d="M404.058,2184.569h-2.607a1.6,1.6,0,0,1-1.6-1.6v-9.026a1.6,1.6,0,0,1,1.6-1.6h2.607v2.009h-2.194v8.2h2.194Z" transform="translate(148.565 -131.611)" fill="#376dec" opacity="0.84"/>
    <path id="Path_1153" data-name="Path 1153" d="M404.058,2132.833h-2.607a1.6,1.6,0,0,1-1.6-1.6v-9.025a1.6,1.6,0,0,1,1.6-1.6h2.607v2.011h-2.194v8.2h2.194Z" transform="translate(148.565 -131.611)" fill="#376dec" opacity="0.84"/>
    <path id="Path_1178" data-name="Path 1178" d="M404.058,2106.964h-2.607a1.6,1.6,0,0,1-1.6-1.6v-9.026a1.6,1.6,0,0,1,1.6-1.6h2.607v2.01h-2.194v8.2h2.194Z" transform="translate(148.565 -131.611)" fill="#376dec" opacity="0.84"/>
    <path id="Path_1199" data-name="Path 1199" d="M404.058,2081.1h-2.607a1.6,1.6,0,0,1-1.6-1.6v-9.026a1.6,1.6,0,0,1,1.6-1.6h2.607v2.01h-2.194v8.2h2.194Z" transform="translate(148.565 -131.611)" fill="#376dec" opacity="0.84"/>
    <path id="Path_1216" data-name="Path 1216" d="M404.058,2233.36h-2.607a1.6,1.6,0,0,1-1.6-1.6v-9.026a1.6,1.6,0,0,1,1.6-1.6h2.607v2.009h-2.194v8.2h2.194Z" transform="translate(148.565 -131.611)" fill="#376dec" opacity="0.84"/>
    <path id="Path_1107" data-name="Path 1107" d="M414.726,2210.438h-2.607v-2.011h2.193v-8.2h-2.193v-2.01h2.607a1.6,1.6,0,0,1,1.6,1.6v9.026a1.6,1.6,0,0,1-1.6,1.6" transform="translate(148.565 -131.611)" fill="#376dec" opacity="0.84"/>
    <path id="Path_1126" data-name="Path 1126" d="M414.726,2184.569h-2.607v-2.009h2.193v-8.2h-2.193v-2.009h2.607a1.6,1.6,0,0,1,1.6,1.6v9.026a1.6,1.6,0,0,1-1.6,1.6" transform="translate(148.565 -131.611)" fill="#376dec" opacity="0.84"/>
    <path id="Path_1154" data-name="Path 1154" d="M414.726,2132.833h-2.607v-2.011h2.193v-8.2h-2.193v-2.011h2.607a1.6,1.6,0,0,1,1.6,1.6v9.025a1.6,1.6,0,0,1-1.6,1.6" transform="translate(148.565 -131.611)" fill="#376dec" opacity="0.84"/>
    <path id="Path_1179" data-name="Path 1179" d="M414.726,2106.964h-2.607v-2.01h2.193v-8.2h-2.193v-2.01h2.607a1.6,1.6,0,0,1,1.6,1.6v9.026a1.6,1.6,0,0,1-1.6,1.6" transform="translate(148.565 -131.611)" fill="#376dec" opacity="0.84"/>
    <path id="Path_1200" data-name="Path 1200" d="M414.726,2081.1h-2.607v-2.01h2.193v-8.2h-2.193v-2.01h2.607a1.6,1.6,0,0,1,1.6,1.6v9.026a1.6,1.6,0,0,1-1.6,1.6" transform="translate(148.565 -131.611)" fill="#376dec" opacity="0.84"/>
    <path id="Path_1217" data-name="Path 1217" d="M414.726,2233.36h-2.607v-2.009h2.193v-8.2h-2.193v-2.009h2.607a1.6,1.6,0,0,1,1.6,1.6v9.026a1.6,1.6,0,0,1-1.6,1.6" transform="translate(148.565 -131.611)" fill="#376dec" opacity="0.84"/>
    <path id="Path_1108" data-name="Path 1108" d="M434.518,2211.436l-5.686-5.686a2.013,2.013,0,0,1,0-2.844l5.686-5.686,1.422,1.422-5.686,5.686,5.686,5.686Z" transform="translate(148.565 -131.611)" fill="#376dec" opacity="0.84"/>
    <path id="Path_1127" data-name="Path 1127" d="M434.518,2185.567l-5.686-5.685a2.015,2.015,0,0,1,0-2.845l5.686-5.686,1.422,1.423-5.686,5.687,5.686,5.684Z" transform="translate(148.565 -131.611)" fill="#376dec" opacity="0.84"/>
    <path id="Path_1155" data-name="Path 1155" d="M434.518,2133.831l-5.686-5.687a2.012,2.012,0,0,1,0-2.843l5.686-5.687,1.422,1.424-5.686,5.686,5.686,5.684Z" transform="translate(148.565 -131.611)" fill="#376dec" opacity="0.84"/>
    <path id="Path_1180" data-name="Path 1180" d="M434.518,2107.963l-5.686-5.686a2.013,2.013,0,0,1,0-2.844l5.686-5.686,1.422,1.422-5.686,5.686,5.686,5.684Z" transform="translate(148.565 -131.611)" fill="#376dec" opacity="0.84"/>
    <path id="Path_1218" data-name="Path 1218" d="M434.518,2234.358l-5.686-5.686a2.014,2.014,0,0,1,0-2.844l5.686-5.686,1.422,1.423-5.686,5.685,5.686,5.686Z" transform="translate(148.565 -131.611)" fill="#376dec" opacity="0.84"/>
    <path id="Path_1109" data-name="Path 1109" d="M441.776,2211.436l-1.424-1.422,5.688-5.686-5.688-5.686,1.424-1.422,5.686,5.686a2.017,2.017,0,0,1,0,2.844Z" transform="translate(148.565 -131.611)" fill="#376dec" opacity="0.84"/>
    <path id="Path_1128" data-name="Path 1128" d="M441.776,2185.567l-1.424-1.422,5.688-5.684-5.688-5.687,1.424-1.423,5.686,5.686a2.018,2.018,0,0,1,0,2.845Z" transform="translate(148.565 -131.611)" fill="#376dec" opacity="0.84"/>
    <path id="Path_1156" data-name="Path 1156" d="M441.776,2133.831l-1.424-1.423,5.688-5.684-5.688-5.686,1.424-1.424,5.686,5.687a2.016,2.016,0,0,1,0,2.843Z" transform="translate(148.565 -131.611)" fill="#376dec" opacity="0.84"/>
    <path id="Path_1181" data-name="Path 1181" d="M441.776,2107.963l-1.424-1.424,5.688-5.684-5.688-5.686,1.424-1.422,5.686,5.686a2.017,2.017,0,0,1,0,2.844Z" transform="translate(148.565 -131.611)" fill="#376dec" opacity="0.84"/>
    <path id="Path_1219" data-name="Path 1219" d="M441.776,2234.358l-1.424-1.422,5.688-5.686-5.688-5.685,1.424-1.423,5.686,5.686a2.017,2.017,0,0,1,0,2.844Z" transform="translate(148.565 -131.611)" fill="#376dec" opacity="0.84"/>
    <rect id="Rectangle_319" data-name="Rectangle 319" width="2.011" height="5.966" transform="translate(606.287 2043.866)" fill="#376dec" opacity="0.84"/>
    <rect id="Rectangle_320" data-name="Rectangle 320" width="2.011" height="5.966" transform="translate(609.871 2043.866)" fill="#376dec" opacity="0.84"/>
    <rect id="Rectangle_333" data-name="Rectangle 333" width="2.011" height="5.966" transform="translate(606.287 1992.128)" fill="#376dec" opacity="0.84"/>
    <rect id="Rectangle_334" data-name="Rectangle 334" width="2.011" height="5.966" transform="translate(609.871 1992.128)" fill="#376dec" opacity="0.84"/>
    <rect id="Rectangle_344" data-name="Rectangle 344" width="2.011" height="5.966" transform="translate(606.287 1966.26)" fill="#376dec" opacity="0.84"/>
    <rect id="Rectangle_345" data-name="Rectangle 345" width="2.011" height="5.966" transform="translate(609.871 1966.26)" fill="#376dec" opacity="0.84"/>
    <rect id="Rectangle_358" data-name="Rectangle 358" width="2.011" height="5.966" transform="translate(606.287 2092.655)" fill="#376dec" opacity="0.84"/>
    <rect id="Rectangle_359" data-name="Rectangle 359" width="2.011" height="5.966" transform="translate(609.871 2092.655)" fill="#376dec" opacity="0.84"/>
    <rect id="Rectangle_321" data-name="Rectangle 321" width="12.85" height="2.011" transform="translate(619.825 2052.821) rotate(-75.577)" fill="#376dec" opacity="0.84"/>
    <rect id="Rectangle_335" data-name="Rectangle 335" width="12.852" height="2.011" transform="translate(619.825 2001.085) rotate(-75.577)" fill="#376dec" opacity="0.84"/>
    <rect id="Rectangle_346" data-name="Rectangle 346" width="12.851" height="2.01" transform="matrix(0.249, -0.968, 0.968, 0.249, 619.825, 1975.216)" fill="#376dec" opacity="0.84"/>
    <rect id="Rectangle_360" data-name="Rectangle 360" width="12.851" height="2.01" transform="matrix(0.249, -0.968, 0.968, 0.249, 619.825, 2101.611)" fill="#376dec" opacity="0.84"/>
    <path id="Path_1129" data-name="Path 1129" d="M491.1,2180.263l-1.246,2.656L485.809,2174l8.748,4.1-2.662,1.345a1.763,1.763,0,0,0-.8.821" transform="translate(148.565 -131.611)" fill="#376dec" opacity="0.84"/>
    <path id="Path_1157" data-name="Path 1157" d="M491.1,2128.526l-1.246,2.656-4.043-8.918,8.748,4.1-2.662,1.344a1.762,1.762,0,0,0-.8.821" transform="translate(148.565 -131.611)" fill="#376dec" opacity="0.84"/>
    <path id="Path_1182" data-name="Path 1182" d="M491.1,2102.659l-1.246,2.654-4.043-8.917,8.748,4.1-2.662,1.344a1.761,1.761,0,0,0-.8.822" transform="translate(148.565 -131.611)" fill="#376dec" opacity="0.84"/>
    <path id="Path_1220" data-name="Path 1220" d="M491.1,2229.054l-1.246,2.656-4.043-8.919,8.748,4.1-2.662,1.345a1.762,1.762,0,0,0-.8.821" transform="translate(148.565 -131.611)" fill="#376dec" opacity="0.84"/>
    <path id="Path_1130" data-name="Path 1130" d="M501.589,2174.291l2.9,7.628,4.729-4.729Z" transform="translate(148.565 -131.611)" fill="#376dec" opacity="0.84"/>
    <rect id="Rectangle_322" data-name="Rectangle 322" width="2.012" height="6.501" transform="matrix(0.707, -0.707, 0.707, 0.707, 652.463, 2046.421)" fill="#376dec" opacity="0.84"/>
    <path id="Path_1158" data-name="Path 1158" d="M501.589,2122.555l2.9,7.626,4.729-4.727Z" transform="translate(148.565 -131.611)" fill="#376dec" opacity="0.84"/>
    <rect id="Rectangle_336" data-name="Rectangle 336" width="2.011" height="6.5" transform="matrix(0.707, -0.707, 0.707, 0.707, 652.464, 1994.684)" fill="#376dec" opacity="0.84"/>
    <path id="Path_1183" data-name="Path 1183" d="M501.589,2096.686l2.9,7.626,4.729-4.727Z" transform="translate(148.565 -131.611)" fill="#376dec" opacity="0.84"/>
    <rect id="Rectangle_347" data-name="Rectangle 347" width="2.012" height="6.501" transform="matrix(0.707, -0.707, 0.707, 0.707, 652.464, 1968.815)" fill="#376dec" opacity="0.84"/>
    <path id="Path_1221" data-name="Path 1221" d="M501.589,2223.082l2.9,7.628,4.729-4.729Z" transform="translate(148.565 -131.611)" fill="#376dec" opacity="0.84"/>
    <rect id="Rectangle_361" data-name="Rectangle 361" width="2.012" height="6.501" transform="matrix(0.707, -0.707, 0.707, 0.707, 652.463, 2095.21)" fill="#376dec" opacity="0.84"/>
    <path id="Path_1159" data-name="Path 1159" d="M522.781,2133.119h-2.009v-4.648a1.257,1.257,0,0,1,.358-.88l.845-.868-.85-.874a1.259,1.259,0,0,1-.353-.875v-4.647h2.009v4.342l1.144,1.179a1.243,1.243,0,0,1,0,1.751l-1.142,1.178Zm-.205-4.129-.008.008Zm-.094-1.744,0,0Zm0-1.048,0,0Z" transform="translate(148.565 -131.611)" fill="#376dec" opacity="0.84"/>
    <path id="Path_1160" data-name="Path 1160" d="M529.178,2133.119h-2.01v-4.342l-1.144-1.174a1.249,1.249,0,0,1,0-1.753l1.144-1.181v-4.342h2.01v4.648a1.258,1.258,0,0,1-.352.873l-.851.877.847.87a1.26,1.26,0,0,1,.356.877Zm-1.709-5.873,0,0,0,0" transform="translate(148.565 -131.611)" fill="#376dec" opacity="0.84"/>
    <rect id="Rectangle_337" data-name="Rectangle 337" width="10.976" height="2.011" transform="translate(668.115 2000.503)" fill="#376dec" opacity="0.84"/>
    <rect id="Rectangle_338" data-name="Rectangle 338" width="10.976" height="2.011" transform="translate(668.115 1987.71)" fill="#376dec" opacity="0.84"/>
    <path id="Path_1222" data-name="Path 1222" d="M522.781,2233.647h-2.009V2229a1.261,1.261,0,0,1,.358-.882l.845-.869-.85-.873a1.255,1.255,0,0,1-.353-.875v-4.648h2.009v4.342l1.144,1.179a1.246,1.246,0,0,1,0,1.754l-1.142,1.177Zm-.205-4.131-.008.008.008-.008m-.094-1.742,0,0Zm0-1.049,0,0Z" transform="translate(148.565 -131.611)" fill="#376dec" opacity="0.84"/>
    <path id="Path_1223" data-name="Path 1223" d="M529.178,2233.648h-2.01v-4.342l-1.144-1.176a1.25,1.25,0,0,1,0-1.754l1.144-1.179v-4.343h2.01v4.647a1.261,1.261,0,0,1-.352.874l-.851.876.847.872a1.258,1.258,0,0,1,.356.877Zm-1.709-5.875,0,.005,0-.005" transform="translate(148.565 -131.611)" fill="#376dec" opacity="0.84"/>
    <rect id="Rectangle_363" data-name="Rectangle 363" width="10.976" height="2.009" transform="translate(668.115 2088.238)" fill="#376dec" opacity="0.84"/>
    <path id="Path_1161" data-name="Path 1161" d="M540.616,2126.723h4.87v-4.872a4.871,4.871,0,0,0-4.87,4.872" transform="translate(148.565 -131.611)" fill="#376dec" opacity="0.84"/>
    <path id="Path_1162" data-name="Path 1162" d="M545.485,2131.594h0a4.87,4.87,0,0,0,4.871-4.871h-4.873Z" transform="translate(148.565 -131.611)" fill="#376dec" opacity="0.84"/>
    <path id="Path_1224" data-name="Path 1224" d="M540.616,2227.25h4.87v-4.872a4.872,4.872,0,0,0-4.87,4.872" transform="translate(148.565 -131.611)" fill="#376dec" opacity="0.84"/>
    <path id="Path_1225" data-name="Path 1225" d="M545.485,2232.121h0a4.871,4.871,0,0,0,4.871-4.871h-4.873Z" transform="translate(148.565 -131.611)" fill="#376dec" opacity="0.84"/>
  </g>
</svg>
